<!DOCTYPE svg PUBLIC "-//W3C//DTD SVG 1.1//EN" "http://www.w3.org/Graphics/SVG/1.1/DTD/svg11.dtd">
<!-- Uploaded to: SVG Repo, www.svgrepo.com, Transformed by: SVG Repo Mixer Tools -->
<svg fill="#78d10a" height="800px" width="800px" version="1.1" id="Layer_1" xmlns="http://www.w3.org/2000/svg" xmlns:xlink="http://www.w3.org/1999/xlink" viewBox="0 0 512 512" xml:space="preserve" stroke="#78d10a">
<g id="SVGRepo_bgCarrier" stroke-width="0"/>
<g id="SVGRepo_tracerCarrier" stroke-linecap="round" stroke-linejoin="round"/>
<g id="SVGRepo_iconCarrier"> <g> <g> <g> <path d="M256,240.484c66.302,0,120.242-53.94,120.242-120.242S322.302,0,256,0S135.758,53.94,135.758,120.241 C135.758,186.544,189.698,240.484,256,240.484z"/> <path d="M330.79,366.69H181.21c-9.22,0-16.696,7.475-16.696,16.696v111.919c0,9.22,7.475,16.696,16.696,16.696h149.58 c9.22,0,16.696-7.475,16.696-16.696V383.386C347.485,374.165,340.01,366.69,330.79,366.69z M256,456.194 c-9.306,0-16.849-7.544-16.849-16.849s7.544-16.849,16.849-16.849c9.305,0,16.849,7.544,16.849,16.849 S265.306,456.194,256,456.194z"/> <path d="M359.224,233.939c-3.751,3.406-7.669,6.634-11.743,9.65v61.251c0,9.216-7.469,16.696-16.696,16.696 c-9.216,0-16.696-7.48-16.696-16.696v-42.374c-17.931,7.357-37.543,11.409-58.09,11.409s-40.17-4.052-58.101-11.409v42.374 c0,9.216-7.48,16.696-16.696,16.696s-16.696-7.48-16.696-16.696V243.59c-4.074-3.028-7.98-6.244-11.731-9.65 C87.786,270.258,43.731,339.757,43.731,419.35c0,9.216,7.48,16.696,16.696,16.696h70.696v-52.66 c0-27.618,22.469-50.087,50.087-50.087h149.58c27.618,0,50.087,22.469,50.087,50.087v52.66h70.696 c9.216,0,16.696-7.48,16.696-16.696C468.268,339.757,424.214,270.258,359.224,233.939z"/> </g> </g> </g> </g>
</svg>